<?xml version="1.0" ?><!DOCTYPE svg  PUBLIC '-//W3C//DTD SVG 1.1//EN'  'http://www.w3.org/Graphics/SVG/1.1/DTD/svg11.dtd'><svg height="2048px" style="shape-rendering:geometricPrecision; text-rendering:geometricPrecision; image-rendering:optimizeQuality; fill-rule:evenodd; clip-rule:evenodd" viewBox="0 0 2048 2048" width="2048px" xml:space="preserve" xmlns="http://www.w3.org/2000/svg" xmlns:xlink="http://www.w3.org/1999/xlink"><defs><style type="text/css">
   <![CDATA[
    .fil1 {fill:none}
    .fil0 {fill:#424242}
   ]]>
  </style></defs><g id="Layer_x0020_1"><g id="_246129344"><path class="fil0" d="M768.896 1341.07l-47.8347 17.0965 -51.4607 20.4425 -85.7375 16.4953 -81.8776 -10.2969c-16.5602,-10.0606 -20.6563,-20.4213 -10.3606,-30.8032 10.3606,-5.89843 24.5823,-14.1354 40.7776,-20.3563l55.3217 -20.4213 181.172 -64.0949 0 -146.056 -47.8347 15.6579 -297.091 106.417 -51.1607 20.4213c-77.7154,32.7768 -118.493,67.6548 -116.756,98.4579 4.16103,44.8748 55.3217,77.7154 147.474,102.234 119.715,32.2406 241.256,39.0402 365.368,20.4213l0 -125.615z" id="_246129872"/><path class="fil0" d="M1396.43 662.052c-40.7776,-55.2993 -112.595,-100.174 -218.99,-137.198 -133.037,-42.8162 -244.494,-74.1556 -334.63,-93.0745l0 1110.89 240.333 73.5544 0 -927.526c0,-24.5823 2.05866,-40.8638 12.4193,-51.1595 10.3606,-14.2228 20.3575,-16.2602 34.8792,-10.3618 34.6004,10.3618 51.1595,41.1 51.1595,92.2383l0 372.769c77.7166,36.6378 147.495,40.8 198.654,1.73858 53.1981,-36.6166 81.8776,-102.299 81.8776,-200.371 0,-102.32 -20.4425,-180.337 -65.7036,-231.496z" id="_246129272"/><path class="fil0" d="M1662.81 1200.64c-92.2383,-30.7382 -184.475,-41.0989 -270.45,-36.9378 -79.539,1.7374 -162.017,16.2602 -246.854,43.1374l0 149.296 169.054 -59.3965 86.0375 -30.8032c0,0 33.378,-7.93701 57.3815,-14.1579 36.6154,-9.75946 75.6556,4.16221 75.6556,4.16221 22.4811,1.7374 32.7768,9.99568 36.9378,20.3563 4.16221,12.1193 -10.3606,22.4799 -41.0989,32.8406l-75.678 28.6795 -308.289 111.093 0 145.135 144.535 -51.6744 346.127 -122.676 40.8 -18.3839c81.8764,-30.717 118.879,-63.4937 114.718,-104.571 -2.03858,-38.7402 -47.2996,-69.4784 -128.876,-96.0993z" id="_246128840"/></g></g><rect class="fil1" height="2048" width="2048"/></svg>